<?xml version="1.0" encoding="UTF-8" standalone="no"?>
<!-- Created with Inkscape (http://www.inkscape.org/) -->

<svg
   xmlns:dc="http://purl.org/dc/elements/1.1/"
   xmlns:cc="http://creativecommons.org/ns#"
   xmlns:rdf="http://www.w3.org/1999/02/22-rdf-syntax-ns#"
   xmlns:svg="http://www.w3.org/2000/svg"
   xmlns="http://www.w3.org/2000/svg"
   xmlns:xlink="http://www.w3.org/1999/xlink"
   xmlns:sodipodi="http://sodipodi.sourceforge.net/DTD/sodipodi-0.dtd"
   xmlns:inkscape="http://www.inkscape.org/namespaces/inkscape"
   width="95.499649mm"
   height="95.499649mm"
   viewBox="0 0 95.499649 95.499649"
   version="1.1"
   id="svg8"
   inkscape:version="0.92.3 (2405546, 2018-03-11)"
   sodipodi:docname="stamp.svg"
   inkscape:export-filename="/home/tom/chancery-privy/latexery/stamp.png"
   inkscape:export-xdpi="500"
   inkscape:export-ydpi="500">
  <defs
     id="defs2" />
  <sodipodi:namedview
     id="base"
     pagecolor="#ffffff"
     bordercolor="#666666"
     borderopacity="1.0"
     inkscape:pageopacity="0.0"
     inkscape:pageshadow="2"
     inkscape:zoom="1.979899"
     inkscape:cx="85.278157"
     inkscape:cy="154.79324"
     inkscape:document-units="mm"
     inkscape:current-layer="layer1"
     showgrid="false"
     inkscape:window-width="1853"
     inkscape:window-height="1025"
     inkscape:window-x="67"
     inkscape:window-y="27"
     inkscape:window-maximized="1" />
  <metadata
     id="metadata5">
    <rdf:RDF>
      <cc:Work
         rdf:about="">
        <dc:format>image/svg+xml</dc:format>
        <dc:type
           rdf:resource="http://purl.org/dc/dcmitype/StillImage" />
        <dc:title />
      </cc:Work>
    </rdf:RDF>
  </metadata>
  <g
     inkscape:label="Layer 1"
     inkscape:groupmode="layer"
     id="layer1"
     transform="translate(-37.294823,-11.881131)">
    <circle
       style="fill:#000000;fill-opacity:1;stroke:#000000;stroke-width:2.32994962;stroke-linejoin:round;stroke-miterlimit:4;stroke-dasharray:none;stroke-opacity:1"
       id="path920-56"
       cx="-1.2525682"
       cy="-103.85988"
       r="46.587948"
       transform="rotate(125.72804)" />
    <circle
       style="fill:none;fill-opacity:1;stroke:#ffffff;stroke-width:2;stroke-linejoin:round;stroke-miterlimit:4;stroke-dasharray:none;stroke-opacity:1"
       id="path920-5"
       cx="-1.209505"
       cy="-104.12366"
       r="41.609501"
       transform="rotate(125.72804)" />
    <circle
       style="fill:#000000;fill-opacity:1;stroke:#000000;stroke-width:1.5;stroke-linejoin:round;stroke-miterlimit:4;stroke-dasharray:none;stroke-opacity:1"
       id="path920"
       cx="-1.0130383"
       cy="-104.49777"
       r="29.992893"
       transform="rotate(125.72804)" />
    <g
       aria-label="CHANCELLOR OF PAPHOS"
       style="font-style:normal;font-variant:normal;font-weight:bold;font-stretch:normal;font-size:10.58333302px;line-height:1.25;font-family:LouisaCP;-inkscape-font-specification:'LouisaCP Bold';font-variant-ligatures:normal;font-variant-caps:normal;font-variant-numeric:normal;font-feature-settings:normal;text-align:start;letter-spacing:0px;word-spacing:0px;writing-mode:lr-tb;text-anchor:start;fill:#000000;fill-opacity:1;stroke:none;stroke-width:0.26458332"
       id="text934" />
    <flowRoot
       xml:space="preserve"
       id="flowRoot843"
       style="font-style:normal;font-variant:normal;font-weight:bold;font-stretch:normal;font-size:40px;line-height:1.25;font-family:sans-serif;-inkscape-font-specification:'sans-serif Bold';font-variant-ligatures:normal;font-variant-caps:normal;font-variant-numeric:normal;font-feature-settings:normal;text-align:start;letter-spacing:0px;word-spacing:0px;writing-mode:lr-tb;text-anchor:start;fill:#000000;fill-opacity:1;stroke:none;"
       transform="matrix(0.26458333,0,0,0.26458333,37.294823,11.881131)"><flowRegion
         id="flowRegion845"
         style="-inkscape-font-specification:'sans-serif Bold';font-family:sans-serif;font-weight:bold;font-style:normal;font-stretch:normal;font-variant:normal;"><rect
           id="rect847"
           width="572.75647"
           height="153.54318"
           x="-490.93414"
           y="352.86234"
           style="-inkscape-font-specification:'sans-serif Bold';font-family:sans-serif;font-weight:bold;font-style:normal;font-stretch:normal;font-variant:normal;" /></flowRegion><flowPara
         id="flowPara849" /></flowRoot>    <flowRoot
       xml:space="preserve"
       id="flowRoot851"
       style="fill:black;fill-opacity:1;stroke:none;font-family:sans-serif;font-style:normal;font-weight:bold;font-size:40px;line-height:1.25;letter-spacing:0px;word-spacing:0px;-inkscape-font-specification:'sans-serif Bold';font-stretch:normal;font-variant:normal;text-anchor:start;text-align:start;writing-mode:lr;font-variant-ligatures:normal;font-variant-caps:normal;font-variant-numeric:normal;font-feature-settings:normal;"><flowRegion
         id="flowRegion853"
         style="-inkscape-font-specification:'sans-serif Bold';font-family:sans-serif;font-weight:bold;font-style:normal;font-stretch:normal;font-variant:normal;"><rect
           id="rect855"
           width="668.72101"
           height="262.63965"
           x="-541.44177"
           y="477.11108"
           style="-inkscape-font-specification:'sans-serif Bold';font-family:sans-serif;font-weight:bold;font-style:normal;font-stretch:normal;font-variant:normal;" /></flowRegion><flowPara
         id="flowPara857" /></flowRoot>    <circle
       style="fill:#000000;fill-opacity:1;stroke:none;stroke-width:2;stroke-linejoin:round;stroke-miterlimit:4;stroke-dasharray:none;stroke-opacity:1"
       id="path33"
       cx="-2.9461601"
       cy="-104.12359"
       r="30"
       transform="rotate(126.69828)" />
    <path
       inkscape:connector-curvature="0"
       d="m 85.139134,88.129149 1.721465,3.55182 3.910381,0.54018 -2.845953,2.73521 0.694587,3.8855 -3.48048,-1.86179 -3.480941,1.86179 0.695067,-3.8855 -2.845971,-2.73521 3.910381,-0.54018 z"
       id="path2"
       style="fill:#ffffff;fill-opacity:1;stroke-width:0.46932042" />
    <circle
       style="fill:none;fill-opacity:1;stroke:#ffffff;stroke-width:2;stroke-linejoin:round;stroke-miterlimit:4;stroke-dasharray:none;stroke-opacity:1"
       id="path920-5-3"
       cx="-1.3629258"
       cy="-104.01328"
       r="26.120693"
       transform="rotate(125.72804)" />
    <text
       xml:space="preserve"
       style="font-style:normal;font-variant:normal;font-weight:bold;font-stretch:normal;font-size:10.58333302px;line-height:1.25;font-family:LouisaCP;-inkscape-font-specification:'LouisaCP Bold';font-variant-ligatures:normal;font-variant-caps:normal;font-variant-numeric:normal;font-feature-settings:normal;text-align:start;letter-spacing:0px;word-spacing:0px;writing-mode:lr-tb;text-anchor:start;fill:#000000;fill-opacity:1;stroke:none;stroke-width:0.26458332"
       id="text871"
       x="122.14217"
       y="0.8018086"
       inkscape:export-xdpi="500"
       inkscape:export-ydpi="500"><textPath
         xlink:href="#path33"
         id="textPath873"
         style="fill:#ffffff"><tspan
   id="tspan867"
   style="font-style:normal;font-variant:normal;font-weight:bold;font-stretch:normal;font-family:sans-serif;-inkscape-font-specification:'sans-serif Bold';fill:#ffffff;stroke-width:0.26458332"
   y="126.09875"
   x="23.663887">CHANCELLOR OF CYPRUS</tspan></textPath></text>
    <g
       id="g3234"
       transform="matrix(0.11900788,0,0,0.11900788,-4.0690736,75.879978)"
       style="fill:#ffffff;fill-opacity:1" />
    <path
       d="m 99.582558,63.597848 c 0.513732,0.818037 1.287512,0.818037 1.777542,0.477385 0.48767,-0.343812 0.69237,-1.027483 0.71687,-1.771225 0.0308,-0.744532 -0.10983,-1.551503 -0.0831,-2.352943 0.0325,-0.801437 0.23474,-1.598923 -0.37384,-2.010708 -0.60859,-0.410205 -2.028087,-0.432334 -3.58355,-0.439447 -1.558621,-0.0078 -3.261868,0 -5.222786,0.03713 -1.959336,0.03794 -4.175543,0.105902 -6.39412,0.205494 -0.02539,-2.020193 -0.03875,-4.040388 -0.06482,-5.678831 -0.02689,-1.640818 -0.06482,-2.89593 0.03953,-3.694208 0.104342,-0.799067 0.352508,-1.138137 1.179239,-1.309648 0.829892,-0.174665 2.232013,-0.179414 3.825406,-0.234738 1.592603,-0.05455 3.367787,-0.158863 5.146127,-0.264761 0.101912,-0.968999 0.177826,-1.940367 0.262402,-2.83033 0.08773,-0.889169 0.184159,-1.696932 -0.02542,-2.104764 -0.207845,-0.406249 -0.720811,-0.408621 -1.17765,-0.36041 -0.459207,0.0498 -0.862297,0.151753 -1.056728,0.295589 -0.192862,0.14306 -0.179411,0.326424 -0.129614,0.588828 0.05291,0.262401 0.13514,0.603054 0.129614,1.01563 -7.92e-4,0.414155 -0.09163,0.897073 -0.930273,1.236145 -0.837005,0.340649 -2.420913,0.536661 -4.202414,0.651268 -1.778341,0.114593 -3.759018,0.148586 -5.729419,0.05927 0.0039,1.681914 0.0111,3.36541 0.03083,4.969869 0.01583,1.605249 0.04505,3.132251 0.04663,4.162105 0.0016,1.030648 -0.02211,1.560989 -0.05138,2.085797 -0.03002,0.523228 -0.06243,1.040132 -0.362782,1.309647 -0.300342,0.270319 -0.867829,0.294814 -1.325456,0.319312 -0.459997,0.02359 -0.807762,0.05296 -1.412396,-0.775356 -0.604636,-0.829893 -1.464565,-2.51655 -2.532358,-4.502758 -1.069374,-1.986208 -2.348201,-4.271178 -3.626235,-6.554566 -1.233771,0.04586 -2.467543,0.08932 -3.502934,0.07665 -1.034599,-0.01111 -1.871603,-0.07981 -2.326858,0.138309 -0.455257,0.214994 -0.531133,0.715288 -0.428383,1.138137 0.102761,0.423643 0.38254,0.772196 0.788004,0.923949 0.404669,0.150946 0.932638,0.105901 1.517517,0.119341 0.584877,0.01255 1.229028,0.08299 1.870022,0.175471 -0.309037,0.905771 -0.685253,1.790198 -1.030646,2.414592 -0.344605,0.624395 -0.658381,0.987177 -0.905768,1.348379 -0.247375,0.358826 -0.425222,0.718448 -0.384123,1.070954 0.03953,0.356457 0.299554,0.708174 0.590408,0.97453 0.290063,0.263986 0.610169,0.442609 0.984808,0.196802 0.374635,-0.244238 0.800646,-0.912883 1.238513,-1.705629 0.440237,-0.793532 0.89075,-1.711156 1.361023,-1.884247 0.470273,-0.173082 0.959514,0.399929 1.353119,1.027483 0.395188,0.626766 0.69395,1.31044 0.997452,1.956965 0.303503,0.644947 0.609377,1.24958 0.861505,1.772019 0.253708,0.522437 0.454468,0.961884 0.559586,1.251161 0.104342,0.289286 0.114592,0.429962 0.08615,0.566696 -1.649509,0.159669 -3.303759,0.29323 -4.68296,0.31299 -1.379993,0.01822 -2.484145,-0.07589 -3.06586,0.291647 -0.580134,0.367523 -0.637042,1.194252 0.126451,1.71432 0.761131,0.518485 2.341087,0.728724 3.602521,0.483709 0.05849,2.511806 0.06876,5.02124 0.05374,6.981368 -0.01195,1.962496 -0.05138,3.371732 -0.165971,4.273546 -0.116175,0.901027 -0.306667,1.291471 -0.633091,1.493807 -0.328004,0.204717 -0.788793,0.218131 -1.254324,0.256069 -0.464738,0.03636 -0.93343,0.09879 -1.135766,0.444191 -0.20155,0.346185 -0.139116,0.978481 0.181775,1.29226 0.320099,0.31773 0.901026,0.314566 1.610782,0.278203 0.708964,-0.02927 1.549131,-0.09643 2.130846,-0.111451 0.581712,-0.01111 0.904977,0.02538 1.060681,-0.171499 0.155696,-0.199191 0.144643,-0.63309 0.130424,-1.314393 -0.01433,-0.682881 -0.03005,-1.612361 0.03241,-3.906815 0.06482,-2.299197 0.207077,-5.957833 0.37859,-9.615681 1.10336,-0.138311 2.213836,-0.230796 3.260289,-0.272677 1.045663,-0.04031 2.028888,-0.03319 2.693593,0.01016 0.662333,0.0411 1.004565,0.114593 1.330989,0.241072 0.143837,2.968642 0.245791,5.938077 0.326425,8.177993 0.0814,2.235966 0.141476,3.741629 -0.03241,4.498805 -0.172305,0.756389 -0.579344,0.76429 -1.038552,0.773775 -0.460788,0.0096 -0.97532,0.01823 -1.263017,0.170722 -0.289287,0.152529 -0.350922,0.4434 -0.383328,0.728724 -0.03477,0.285313 -0.04189,0.562746 0.200743,0.766664 0.243433,0.203132 0.73584,0.335116 1.496968,0.34618 0.761921,0.01016 1.790986,-0.09879 2.601911,-0.123283 0.807761,-0.02539 1.393429,0.03319 1.710368,-0.205494 0.317729,-0.238682 0.372265,-0.774565 0.154114,-1.198206 -0.21577,-0.420478 -0.700272,-0.728721 -0.757967,-1.111264 -0.05296,-0.385704 0.314567,-0.848071 0.697898,-1.330989 0.38254,-0.479756 0.773776,-0.981641 1.224288,-1.443222 0.447351,-0.464739 0.957142,-0.89075 1.391056,-1.210853 0.435496,-0.32168 0.80065,-0.536662 1.183981,-0.708964 0.647316,1.127073 1.347587,2.227272 2.076312,3.289533 0.731102,1.067006 1.49539,2.095281 2.043908,2.656447 0.548519,0.561163 0.881264,0.653641 1.454286,0.667865 0.57461,0.01254 1.383154,-0.05296 1.988588,-0.05296 0.60305,-0.0039 0.998246,0.05849 1.334137,0.0033 0.33671,-0.05769 0.61492,-0.231573 0.70976,-0.46711 0.0948,-0.233156 0.006,-0.53034 -0.0782,-0.775358 -0.0861,-0.244209 -0.17071,-0.441817 -0.51453,-0.527969 -0.33985,-0.08774 -0.936586,-0.06955 -1.483536,-0.104342 -0.545351,-0.03318 -1.042496,-0.121702 -1.656613,-0.622022 C 96.510202,72.073 95.781471,71.165653 95.081199,70.231431 94.384084,69.297998 93.714635,68.338488 92.966151,67.348939 92.219249,66.362554 91.390146,65.34534 90.48359,64.228544 89.583355,63.108586 88.60487,61.88904 88.523462,61.135022 c -0.08774,-0.751646 0.720032,-1.04092 1.630541,-1.170543 0.90893,-0.127257 1.917445,-0.09721 3.409672,-0.100374 1.496178,-0.0047 3.475269,-0.04586 5.456745,-0.0814 -0.206293,1.363392 0.04983,2.997884 0.561954,3.81513 z m -10.443992,1.806006 c 0.24185,0.42917 0.456047,0.82752 0.424433,1.202946 -0.03319,0.377799 -0.31299,0.729517 -0.633881,1.102571 -0.316149,0.369104 -0.672606,0.756387 -1.157895,1.062262 -0.481338,0.305875 -1.094668,0.53034 -1.347587,-0.576184 -0.255292,-1.105732 -0.154113,-3.542452 0.295589,-5.477287 0.187331,-0.01016 0.369894,0.04979 0.640203,0.28612 0.271901,0.235516 0.637831,0.648105 0.953979,1.083603 0.313779,0.431543 0.583295,0.888379 0.825151,1.315972 z"
       id="path1620"
       style="fill:#ffffff;fill-opacity:1;fill-rule:evenodd;stroke:#ffffff;stroke-width:1.20000005;stroke-miterlimit:4;stroke-dasharray:none;stroke-opacity:1"
       inkscape:connector-curvature="0" />
  </g>
</svg>
